# xmcd CD database file
#
# Track frame offsets:
#	150
#	24310
#	47095
#	73242
#	95802
#	113140
#	136640
#	162917
#	185810
#	209822
#
# Disc length: 3088 seconds
#
# Revision: 0
# Processed by: cddbd v1.5.2PL0 Copyright (c) Steve Scherf et al.
# Submitted via: CDex 1.51
#
DISCID=940c0e0a
DTITLE=Woodwind Dreams - Woodwind Dreams
DYEAR=1900
DGENRE=New Age
TTITLE0=Crystalline
TTITLE1=Aqua Mirage
TTITLE2=Woodwind Waltz
TTITLE3=Spellbinder
TTITLE4=Gossamer
TTITLE5=Mystic Oasis
TTITLE6=Lianis Flower
TTITLE7=Phantasy
TTITLE8=Ancient Vision
TTITLE9=Clairvoyance
EXTD=
EXTT0=
EXTT1=
EXTT2=
EXTT3=
EXTT4=
EXTT5=
EXTT6=
EXTT7=
EXTT8=
EXTT9=
PLAYORDER=
